<svg width="15" height="15" viewBox="0 0 15 15" fill="none" xmlns="http://www.w3.org/2000/svg">
<path d="M13.1177 2.2349H11.224V0.858118C11.224 0.592715 11.0042 0.377075 10.7336 0.377075C10.4631 0.377075 10.2433 0.592715 10.2433 0.858118V2.2349H5.67808V0.858118C5.67808 0.592715 5.45828 0.377075 5.18775 0.377075C4.91721 0.377075 4.69741 0.592715 4.69741 0.858118V2.2349H2.80369C1.7892 2.2349 0.960693 3.04769 0.960693 4.04295V12.569C0.960693 13.5643 1.7892 14.3771 2.80369 14.3771H13.1177C14.1322 14.3771 14.9607 13.5643 14.9607 12.569V4.04295C14.9607 3.04769 14.1322 2.2349 13.1177 2.2349ZM2.80369 3.19698H4.69741V3.86049C4.69741 4.12589 4.91721 4.34153 5.18775 4.34153C5.45828 4.34153 5.67808 4.12589 5.67808 3.86049V3.19698H10.2264V3.86049C10.2264 4.12589 10.4462 4.34153 10.7167 4.34153C10.9873 4.34153 11.2071 4.12589 11.2071 3.86049V3.19698H13.1008C13.5742 3.19698 13.9631 3.5785 13.9631 4.04295V5.65196H1.94137V4.04295C1.94137 3.5785 2.33026 3.19698 2.80369 3.19698ZM13.1177 13.415H2.80369C2.33026 13.415 1.94137 13.0335 1.94137 12.569V6.63063H13.98V12.569C13.98 13.0335 13.5911 13.415 13.1177 13.415Z" fill="#314363"/>
</svg>
