<svg width="10" height="7" viewBox="0 0 10 7" fill="none" xmlns="http://www.w3.org/2000/svg">
<path fill-rule="evenodd" clip-rule="evenodd" d="M0.82697 4.11357L3.17318 6.45984C3.32575 6.61242 3.52681 6.68923 3.72685 6.68923C3.92681 6.68923 4.12795 6.61247 4.28058 6.45985L8.97327 1.76716C9.27915 1.46114 9.27902 0.965777 8.97314 0.659758C8.66716 0.353918 8.17188 0.353823 7.86588 0.659822L3.72685 4.79879L1.93417 3.00611C1.6282 2.70029 1.13291 2.70024 0.826904 3.00617C0.52087 3.31213 0.520939 3.8076 0.82697 4.11357ZM1.01107 3.45822C0.975792 3.5866 1.00868 3.72964 1.10975 3.83066L1.97455 4.69549L3.45602 6.17701C3.53073 6.25171 3.62879 6.28923 3.72685 6.28923C3.82491 6.28923 3.92304 6.25171 3.99774 6.17701L8.69036 1.48438C8.73912 1.4356 8.77201 1.37704 8.78901 1.31507C8.77188 1.37646 8.73914 1.43445 8.69079 1.48282L3.99816 6.17544C3.92346 6.25014 3.82533 6.28767 3.72727 6.28767C3.62921 6.28767 3.53115 6.25014 3.45645 6.17544L1.97034 4.68929L1.11017 3.82909C1.00952 3.72849 0.976486 3.58619 1.01107 3.45822Z" fill="#F5F5F7"/>
</svg>
